<svg viewBox="0 0 200 200" xmlns="http://www.w3.org/2000/svg">
  <path fill="#F0C5D5" d="M33.5,-58.3C40.9,-53.7,42.6,-39.7,41,-28.4C39.4,-17.1,34.4,-8.5,38.2,2.2C42,12.9,54.6,25.9,57.6,39.6C60.7,53.4,54.2,68,43,77.6C31.8,87.1,15.9,91.6,4.2,84.3C-7.5,77,-14.9,57.9,-26.1,48.3C-37.2,38.7,-52.1,38.7,-58.9,32.2C-65.8,25.8,-64.6,12.9,-60.4,2.4C-56.1,-8,-48.9,-16,-44.1,-26.1C-39.4,-36.1,-37.1,-48.2,-30.1,-53.1C-23.2,-58,-11.6,-55.8,0.7,-57C13,-58.3,26.1,-63,33.5,-58.3Z" transform="translate(100 100)" />
</svg>